#!OML:ASF H:\charlestonDancing\Project 1\Capture day 1\Session 1\femaleDancer.ASF
:FULLY-SPECIFIED
:DEGREES
63
root 23.4097 17.3339 1.39754 0.153241 -100.545 -1.40622
lowerback 7.94731 1.96611 1.16694
upperback 0.416062 2.57077 -2.64243
thorax -3.84987 1.21716 -3.68286
lowerneck 4.03769 -3.93354 1.29936
upperneck -5.26643 -5.08194 2.08552
head -2.32752 -2.62703 0.603807
rclavicle 2.15681e-014 -2.8625e-014
rhumerus -31.574 0.531411 -91.1546
rradius 21.8638
rwrist 25.5281
rhand -10.0739 -40.9523
rfingers 7.12502
rthumb 15.9125 -70.3185
lclavicle 2.15681e-014 -2.8625e-014
lhumerus -44.8313 15.5378 73.077
lradius 30.4376
lwrist -7.99601
lhand -24.8874 15.8391
lfingers 7.12502
lthumb 1.6203 45.8126
rfemur -0.251174 7.38727 21.3158
rtibia 56.7578
rfoot 20.9163 18.6424
rtoes -21.0272
lfemur -21.7728 2.14814 -26.3899
ltibia 39.4866
lfoot -14.0608 0.940238
ltoes -17.5085
64
root 23.0959 17.3724 1.36624 6.72166 -100.693 -8.329
lowerback 8.64466 1.37528 -0.687134
upperback 0.6252 1.58335 -2.72994
thorax -4.1407 0.748848 -2.63854
lowerneck 2.59476 -3.62199 0.683055
upperneck -4.95535 -4.73685 2.00567
head -1.95199 -2.43435 0.629726
rclavicle -6.70898e-015 -1.43125e-014
rhumerus -32.0088 0.464015 -90.4902
rradius 21.2131
rwrist 23.7678
rhand -4.13664 -46.3311
rfingers 7.12502
rthumb 21.6227 -75.1438
lclavicle -6.70898e-015 -1.43125e-014
lhumerus -43.4037 15.5325 74.1539
lradius 33.3548
lwrist -6.68459
lhand -25.6317 16.7664
lfingers 7.12502
lthumb 0.901415 46.7443
rfemur -3.85695 7.52792 19.6639
rtibia 60.7699
rfoot 16.2516 18.5721
rtoes -20.7534
lfemur -19.596 2.90862 -27.8287
ltibia 38.1154
lfoot -14.2046 0.0299332
ltoes -17.6654
65
root 22.741 17.4064 1.3531 10.8825 -101.888 -12.9554
lowerback 8.84367 1.40896 -1.82148
upperback 0.617141 1.4814 -3.02092
thorax -4.28704 0.709132 -2.29732
lowerneck 2.83221 -3.65691 0.582181
upperneck -5.20958 -4.78919 1.86514
head -2.07824 -2.45775 0.614382
rclavicle -3.69739e-014 2.62396e-014
rhumerus -33.4005 -5.80063 -86.1193
rradius 16.9932
rwrist 36.4397
rhand -8.58374 -37.1549
rfingers 7.12502
rthumb 17.3471 -66.4007
lclavicle -3.69739e-014 2.62396e-014
lhumerus -42.3546 14.2625 75.0818
lradius 36.1201
lwrist -6.27035
lhand -26.3065 17.0239
lfingers 7.12502
lthumb 0.249714 47.0035
rfemur -7.24373 8.40212 18.0959
rtibia 63.9631
rfoot 11.3466 17.8496
rtoes -17.1667
lfemur -17.1993 3.877 -29.0839
ltibia 36.8357
lfoot -14.8145 -0.134888
ltoes -16.8036
66
root 22.4111 17.4364 1.33489 13.6241 -102.334 -15.9188
lowerback 9.30614 1.17022 -2.6544
upperback 0.454993 1.03918 -3.1232
thorax -4.74097 0.503093 -1.89567
lowerneck 2.60218 -3.59946 0.377316
upperneck -4.97784 -4.73687 1.62448
head -1.96235 -2.4186 0.562265
rclavicle -6.06293e-015 -4.77083e-015
rhumerus -35.1732 -10.4208 -82.098
rradius 15.0836
rwrist 43.7937
rhand -8.92368 -35.4125
rfingers 7.12502
rthumb 17.0199 -64.6868
lclavicle -6.06293e-015 -4.77083e-015
lhumerus -41.2968 12.9715 75.9404
lradius 38.8706
lwrist -6.7548
lhand -26.4217 17.3087
lfingers 7.12502
lthumb 0.138445 47.2884
rfemur -10.7766 8.51236 17.0296
rtibia 66.2638
rfoot 6.84718 15.2067
rtoes -19.5527
lfemur -15.2009 4.15925 -29.9091
ltibia 35.7648
lfoot -15.4234 -0.379618
ltoes -16.0624
67
root 22.0758 17.4605 1.3187 14.462 -102.411 -16.8492
lowerback 9.66556 0.843224 -2.92483
upperback 0.288808 0.555287 -3.05444
thorax -5.12642 0.273899 -1.61679
lowerneck 2.47578 -3.58012 0.0547179
upperneck -4.84604 -4.73219 1.49146
head -1.89231 -2.40555 0.569061
rclavicle -7.03201e-015 3.57812e-014
rhumerus -37.3183 -14.3786 -77.8001
rradius 13.9112
rwrist 49.9915
rhand -10.0825 -34.2007
rfingers 7.12502
rthumb 15.9042 -63.5676
lclavicle -7.03201e-015 3.57812e-014
lhumerus -40.1345 11.528 76.8231
lradius 41.6802
lwrist -7.99168
lhand -26.012 18.898
lfingers 7.12502
lthumb 0.534125 48.8771
rfemur -14.1167 8.33843 16.6118
rtibia 67.5481
rfoot 2.32805 11.5264
rtoes -21.3927
lfemur -13.4315 4.13039 -30.2375
ltibia 34.9578
lfoot -16.0448 -0.487691
ltoes -16.8198
68
root 21.7401 17.4768 1.30341 12.8589 -102.183 -15.0666
lowerback 9.41744 0.478414 -2.5974
upperback 0.343569 0.147716 -2.74561
thorax -4.93058 0.0724023 -1.41741
lowerneck 1.94544 -3.43929 -0.572454
upperneck -4.59524 -4.55882 1.79575
head -1.69762 -2.31311 0.747508
rclavicle 3.40419e-014 -3.10104e-014
rhumerus -39.2409 -17.6592 -73.463
rradius 13.0738
rwrist 54.8245
rhand -11.2822 -33.7072
rfingers 7.12502
rthumb 14.7486 -63.1625
lclavicle 3.40419e-014 -3.10104e-014
lhumerus -38.5396 10.1088 77.7921
lradius 44.4056
lwrist -9.62221
lhand -25.6016 20.2653
lfingers 7.12502
lthumb 0.930576 50.243
rfemur -17.384 8.0461 16.978
rtibia 67.8346
rfoot -1.414 7.38827
rtoes -20.8032
lfemur -12.0903 4.16092 -29.8843
ltibia 34.4349
lfoot -16.7016 -0.816184
ltoes -18.0699
69
root 21.3991 17.4925 1.28718 9.90038 -101.984 -11.8101
lowerback 8.52019 0.152852 -2.06594
upperback 0.725511 -0.148399 -2.29047
thorax -4.02911 -0.0810623 -1.19434
lowerneck 1.69339 -3.48474 -0.654528
upperneck -5.0107 -4.64386 1.38653
head -1.79335 -2.34787 0.636823
rclavicle -5.51627e-014 1.43125e-014
rhumerus -40.7249 -20.914 -68.9253
rradius 12.2815
rwrist 59.0112
rhand -11.4186 -34.6356
rfingers 7.12502
rthumb 14.6172 -64.1005
lclavicle -5.51627e-014 1.43125e-014
lhumerus -36.4625 8.93878 78.6769
lradius 46.6934
lwrist -11.5398
lhand -26.0497 19.1749
lfingers 7.12502
lthumb 0.497736 49.1541
rfemur -20.4559 7.76609 17.6876
rtibia 67.1161
rfoot -4.49666 3.28587
rtoes -19.0069
lfemur -10.9143 4.59179 -29.1701
ltibia 34.0634
lfoot -17.3019 -1.55356
ltoes -17.9632
70
root 21.0514 17.5036 1.26843 7.45889 -101.911 -9.11242
lowerback 8.21329 -0.0972113 -1.58789
upperback 0.709406 -0.401065 -1.94377
thorax -3.87548 -0.207482 -1.07349
lowerneck 2.39247 -3.81544 0.188379
upperneck -5.85175 -5.12705 0.0990848
head -2.24549 -2.57624 0.136744
rclavicle 4.32357e-015 -7.95139e-016
rhumerus -42.9413 -23.4587 -64.3642
rradius 11.7955
rwrist 62.581
rhand -11.0989 -36.0956
rfingers 7.12502
rthumb 14.9252 -65.5378
lclavicle 4.32357e-015 -7.95139e-016
lhumerus -34.9276 7.53361 79.2281
lradius 48.8016
lwrist -13.0277
lhand -26.8125 17.5
lfingers 7.12502
lthumb -0.238997 47.4796
rfemur -23.1464 7.49872 18.273
rtibia 65.4309
rfoot -7.18404 -0.537846
rtoes -17.7827
lfemur -9.6576 5.07188 -28.5854
ltibia 33.6877
lfoot -17.7877 -2.40349
ltoes -16.2006
71
root 20.7051 17.5107 1.24696 6.06249 -101.813 -7.54223
lowerback 8.48131 -0.308668 -1.32474
upperback 0.388441 -0.651891 -1.69817
thorax -4.36083 -0.328005 -0.936993
lowerneck 2.15707 -3.68981 -0.595828
upperneck -5.2269 -4.94727 0.755329
head -1.95998 -2.48553 0.451826
rclavicle -1.963e-014 4.77083e-015
rhumerus -45.5383 -24.8667 -60.1792
rradius 11.6034
rwrist 65.5384
rhand -10.9918 -37.1315
rfingers 7.12502
rthumb 15.0284 -66.5661
lclavicle -1.963e-014 4.77083e-015
lhumerus -33.718 5.91349 79.63
lradius 50.8258
lwrist -14.0249
lhand -27.5138 16.3382
lfingers 7.12502
lthumb -0.916299 46.316
rfemur -25.3998 7.20393 18.6602
rtibia 62.7893
rfoot -9.30675 -3.98356
rtoes -16.5847
lfemur -8.25811 5.36998 -28.2403
ltibia 33.1632
lfoot -18.1868 -3.10489
ltoes -14.9932
72
root 20.367 17.5202 1.22211 5.60296 -101.43 -6.98831
lowerback 8.61886 -0.614149 -1.31967
upperback 0.298075 -1.04792 -1.47136
thorax -4.53048 -0.518963 -0.654707
lowerneck 2.50807 -3.82116 -0.489974
upperneck -5.54923 -5.14192 0.397408
head -2.13961 -2.57564 0.341328
rclavicle 2.19409e-014 -1.07344e-014
rhumerus -47.6335 -26.1296 -56.2072
rradius 11.3541
rwrist 68.4304
rhand -11.1359 -37.3945
rfingers 7.12502
rthumb 14.8895 -66.8394
lclavicle 2.19409e-014 -1.07344e-014
lhumerus -32.2922 4.41711 79.9529
lradius 52.943
lwrist -14.8608
lhand -28.1978 15.6276
lfingers 7.12502
lthumb -1.57698 45.6015
rfemur -27.1695 6.71878 18.8931
rtibia 59.2042
rfoot -10.8091 -6.81327
rtoes -14.4795
lfemur -6.68896 5.47718 -28.0654
ltibia 32.3718
lfoot -18.3463 -3.66005
ltoes -15.0535
73
root 20.0369 17.534 1.19278 5.46263 -100.741 -6.7586
lowerback 8.79177 -0.975051 -1.31561
upperback 0.0988615 -1.52332 -1.31651
thorax -4.83235 -0.74826 -0.432668
lowerneck 3.3359 -3.95116 -0.430829
upperneck -5.85503 -5.32185 0.286289
head -2.39516 -2.66044 0.327594
rclavicle 2.49723e-015 1.70955e-014
rhumerus -50.2256 -27.8152 -51.515
rradius 10.9808
rwrist 71.9588
rhand -11.8712 -36.9469
rfingers 7.12502
rthumb 14.1811 -66.4428
lclavicle 2.49723e-015 1.70955e-014
lhumerus -31.2603 2.74099 80.0876
lradius 55.2364
lwrist -15.0981
lhand -28.7564 15.1591
lfingers 7.12502
lthumb -2.11647 45.1283
rfemur -28.4912 6.0428 19.12
rtibia 54.7496
rfoot -11.8837 -8.78338
rtoes -13.6809
lfemur -4.96285 5.30815 -27.9058
ltibia 31.2172
lfoot -18.203 -4.13279
ltoes -14.8229
74
root 19.7039 17.552 1.16417 5.79444 -100.081 -7.08828
lowerback 9.33255 -1.33655 -1.32611
upperback -0.220821 -2.01553 -1.23208
thorax -5.4677 -0.98292 -0.258334
lowerneck 3.49735 -3.86512 -0.850979
upperneck -5.3522 -5.19332 0.763519
head -2.23391 -2.59948 0.539199
rclavicle -2.66744e-014 1.51076e-014
rhumerus -53.0733 -29.4836 -46.4378
rradius 10.642
rwrist 75.8795
rhand -12.5116 -36.5142
rfingers 7.12502
rthumb 13.5639 -66.0524
lclavicle -2.66744e-014 1.51076e-014
lhumerus -30.4108 1.21838 80.0708
lradius 57.3732
lwrist -14.8105
lhand -29.0715 14.4513
lfingers 7.12502
lthumb -2.42073 44.4173
rfemur -29.4081 5.23688 19.2521
rtibia 49.5709
rfoot -12.5793 -9.62149
rtoes -15.2449
lfemur -2.9955 5.16859 -27.8477
ltibia 29.6894
lfoot -17.856 -4.37815
ltoes -14.5692
